<?xml version="1.0" encoding="UTF-8" standalone="no"?>
<svg
   xmlns:dc="http://purl.org/dc/elements/1.1/"
   xmlns:cc="http://creativecommons.org/ns#"
   xmlns:rdf="http://www.w3.org/1999/02/22-rdf-syntax-ns#"
   xmlns:svg="http://www.w3.org/2000/svg"
   xmlns="http://www.w3.org/2000/svg"
   id="svg4580"
   version="1.1"
   xml:space="preserve"
   width="4.0520835in"
   viewBox="0 0 4.0520832 1.6666666"
   style="clip-rule:evenodd;fill-rule:evenodd;image-rendering:optimizeQuality;shape-rendering:geometricPrecision;text-rendering:geometricPrecision"
   height="1.6666666in"><metadata
     id="metadata4584"><rdf:RDF><cc:Work
         rdf:about=""><dc:format>image/svg+xml</dc:format><dc:type
           rdf:resource="http://purl.org/dc/dcmitype/StillImage" /><dc:title></dc:title></cc:Work></rdf:RDF></metadata><defs
     id="defs4571"><style
       id="style4569"
       type="text/css"><![CDATA[
    .fil1 {fill:none}
    .fil0 {fill:#0A93E2;fill-rule:nonzero}
   ]]></style></defs><g
     style="fill:#000000"
     transform="matrix(0.29840876,0,0,0.27819681,1.1319135,0.28875139)"
     id="Layer_x0020_1"><g
       id="g5331"><path
         class="fil0"
         d="M 7.0189889,3.7122556 C 6.9184243,3.654918 6.8858351,3.5244571 6.9461996,3.4208658 7.006564,3.3172744 7.1370249,3.2797778 7.2375895,3.3371155 L 8.5347293,4.0766898 9.3133447,2.7405089 c 0.060365,-0.1035913 0.1908253,-0.141088 0.2913899,-0.08375 0.1005646,0.057338 0.1331538,0.1877985 0.072789,0.2913899 l -0.8870139,1.5222034 -8.841e-4,0.00156 c -0.06037,0.1036014 -0.1908465,0.1411024 -0.2914208,0.083759 l 1.14e-5,-1.95e-5 -1.479224,-0.8433911 z"
         id="path4575"
         style="fill:#0a93e2;fill-rule:nonzero;fill-opacity:1" /><path
         style="opacity:1;fill:none;fill-opacity:0.16818183;stroke:#0a93e2;stroke-width:12.01000023;stroke-linecap:round;stroke-linejoin:round;stroke-miterlimit:4;stroke-dasharray:none;stroke-dashoffset:0;stroke-opacity:1"
         d="M 355.76367,143.68555 C 340.23738,66.949977 272.79057,11.782406 194.5,11.78125 116.27329,11.863202 48.919838,67.012521 33.40625,143.68555"
         id="path5180"
         transform="matrix(0.03490737,0,0,0.03744351,-3.7931644,-1.0379393)" /></g></g><rect
     style="fill:none"
     y="-5.1599936"
     x="0"
     id="rect4578"
     width="6.8266602"
     height="6.8266602"
     class="fil1" /></svg>